<svg xmlns="http://www.w3.org/2000/svg" width="1002.7" height="1002.7" version="1.0" viewBox="0 0 752 752"><path d="M284 164c-15 4-27 17-30 32v287c3 13 11 23 22 29 11 5 17 4 17-2 0-4-1-5-6-7-6-1-13-6-16-11-6-8-6-2-6-153 0-153 0-144 6-153 2-3 6-6 10-8l6-3h178l6 3c4 2 8 5 10 8 6 9 6 0 6 153 0 151 0 145-6 153-3 5-10 10-15 11-6 2-7 3-7 7s2 5 8 5c14-2 28-15 31-32 1-7 2-279 0-287-2-13-11-24-23-29l-6-3-91-1-94 1z"/><path d="M296 218v5h160v-11H296v6zm0 24v6h160v-12H296v6zm1 19-1 6v5h90v-12h-44l-45 1zm-1 54v6h160v-12H296v6zm1 19-1 6v5h160v-12h-80l-79 1zm-1 30v5l80 1h80v-12H296v6zm1 19-1 6v5h90v-12h-44l-45 1zm-1 54v6h160v-12H296v6zm1 19-1 6v5h160v-12h-80l-79 1zm-1 30v5l45 1h45v-12h-90v6zm1 43-1 6v5h160v-11l-80-1-79 1zm-1 30v6h160v-12H296v6zm1 19-1 6v5h90v-12h-44l-45 1z"/></svg>